# xmcd
#
# Track frame offsets: 
#        150
#        9537
#        29287
#        48300
#        73950
#        91250
#        100300
#        114850
#        133850
#        158325
#        184425
#        206600
#        232262
#        246975
#        268275
#
# Disc length: 3808 seconds
#
# Revision: 3
# Processed by: cddbd v1.5.2PL0 Copyright (c) Steve Scherf et al.
# Submitted via: ExactAudioCopy v0.99pb5
#
DISCID=d70ede0f
DTITLE=Bill Withers - Ain't No Sunshine
DYEAR=1985
DGENRE=Blues
TTITLE0=Ain't No Sunshine
TTITLE1=Love Is
TTITLE2=Heart In Your Life
TTITLE3=Steppin' Right Along
TTITLE4=Kissing My Love
TTITLE5=Grandma's Hands
TTITLE6=Who Is She ? (And What Is He To You)?
TTITLE7=Lovely Day
TTITLE8=Hello Like Before
TTITLE9=Watching You Watching Me
TTITLE10=Then You Smile At Me
TTITLE11=You Try To Find A Love
TTITLE12=Whatever Happens
TTITLE13=Let Me Be The One You Need
TTITLE14=All Because Of You
EXTD=
EXTT0=
EXTT1=
EXTT2=
EXTT3=
EXTT4=
EXTT5=
EXTT6=
EXTT7=
EXTT8=
EXTT9=
EXTT10=
EXTT11=
EXTT12=
EXTT13=
EXTT14=
PLAYORDER=
